:SAMPLES-PER-SECOND 30
:FULLY-SPECIFIED
:DEGREES
745
root  -33.7029 38.5169 9.33624 164.173 68.1369 168.879
RightUpLeg  21.9002 -4.09106 0.70897
RightLeg  15.2344 20.9579 3.94412
RightFoot  -17.0412 -0.652086 -10.7789
RightToes  6.35927e-011 1.30204e-014 -6.03759e-014
Spine  4.04055 2.51528 7.54499
Spine1  12.4064 5.52716 -8.6926
HEad  -12.3 2.94404 -3.26423
LeftShoulder1  -0.188069 4.07036 -26.9777
LeftArm  -13.573 11.1103 -22.1508
LeftForeArm  6.02158 -18.6455 -3.86862
LeftHand  -0.0358881 5.15281 7.77059
RightShoulder  -0.380029 -4.61928 27.0448
RightArm  9.68575 1.17515 46.8253
RightForeArm  -1.62223 4.44077 6.42733
RightHand  -0.523833 2.3882 -8.01533
LeftUpLeg  -17.0694 -2.5172 -8.09442
LeftLeg  6.86249 -1.32385 -0.902939
LeftFoot  0.293869 0.219783 -2.38447
LeftToes  -7.16024e-010 4.79583e-011 -5.98286e-011
746
root  -32.1487 38.3275 8.95278 159.914 70.1149 164.869
RightUpLeg  23.3954 -2.0806 -1.01064
RightLeg  18.4136 22.173 6.913
RightFoot  -16.0355 -0.514693 -10.0114
RightToes  6.35927e-011 1.30204e-014 -6.03759e-014
Spine  3.57516 2.80129 5.70889
Spine1  12.1053 5.75767 -8.86929
HEad  -11.5654 3.40063 -2.80625
LeftShoulder1  -0.313992 4.43045 -27.6676
LeftArm  -12.2621 9.82763 -22.253
LeftForeArm  5.59038 -18.0715 -4.02331
LeftHand  -0.0152943 5.48919 7.54511
RightShoulder  -0.414347 -4.71113 27.345
RightArm  10.108 -1.35126 45.4763
RightForeArm  -1.22317 3.84402 6.50026
RightHand  -0.512979 2.3759 -7.8623
LeftUpLeg  -16.9306 -2.05989 -9.24595
LeftLeg  10.9717 -2.07979 -0.745853
LeftFoot  5.71047 -0.396521 2.47653
LeftToes  -7.16024e-010 4.79583e-011 -5.98286e-011
747
root  -30.6534 38.1805 8.6026 154.512 71.2923 159.636
RightUpLeg  22.8023 -1.93781 -4.44073
RightLeg  25.4325 25.0557 12.385
RightFoot  -13.7427 -0.21633 -5.62699
RightToes  6.35927e-011 1.30204e-014 -6.03759e-014
Spine  3.49323 2.81574 3.21094
Spine1  11.3234 5.53766 -8.75968
HEad  -10.6181 3.84003 -2.30068
LeftShoulder1  -0.441268 4.76848 -28.7282
LeftArm  -11.6244 8.00935 -23.0348
LeftForeArm  5.84306 -16.3038 -4.143
LeftHand  0.00139532 5.7923 7.16886
RightShoulder  -0.484842 -4.90557 27.7279
RightArm  10.6972 -3.5124 44.2751
RightForeArm  0.42989 3.61099 6.56744
RightHand  -0.402423 1.57726 -6.83649
LeftUpLeg  -17.011 -1.04261 -10.5456
LeftLeg  15.87 -1.94586 -0.487737
LeftFoot  7.2312 -0.891354 5.22953
LeftToes  -7.16024e-010 4.79583e-011 -5.98286e-011
748
root  -29.3561 38.0612 8.30017 147.815 72.5848 152.914
RightUpLeg  18.9608 -2.09344 -8.34513
RightLeg  37.1884 27.3017 20.3308
RightFoot  -8.68965 -0.226673 4.56356
RightToes  6.35927e-011 1.30204e-014 -6.03759e-014
Spine  3.91002 2.89765 1.16991
Spine1  10.5605 5.45336 -9.37635
HEad  -9.89867 4.1212 -2.08861
LeftShoulder1  -0.507337 4.9277 -29.4764
LeftArm  -12.1854 5.56498 -25.453
LeftForeArm  6.58431 -13.0991 -4.21449
LeftHand  0.0146034 6.06132 6.83398
RightShoulder  -0.504626 -4.96335 27.7344
RightArm  10.6427 -5.44592 43.8148
RightForeArm  2.08846 4.08911 6.37603
RightHand  -0.273756 0.354895 -5.61759
LeftUpLeg  -17.0138 -0.0714506 -11.6681
LeftLeg  20.4415 -0.518538 0.148534
LeftFoot  4.13363 -0.861135 6.14251
LeftToes  -7.16024e-010 4.79583e-011 -5.98286e-011
749
root  -28.2922 37.9604 8.05214 137.62 74.6013 142.853
RightUpLeg  12.847 0.315006 -10.997
RightLeg  49.3879 24.4513 27.1055
RightFoot  -0.903554 -1.55919 16.8805
RightToes  6.35927e-011 1.30204e-014 -6.03759e-014
Spine  4.93399 3.26335 -0.437424
Spine1  10.3072 5.66286 -10.6778
HEad  -9.89472 4.8346 -2.47759
LeftShoulder1  -0.511921 4.92569 -29.8469
LeftArm  -12.8147 2.84401 -29.2565
LeftForeArm  6.32216 -9.29327 -4.19487
LeftHand  0.0362901 6.45683 6.83315
RightShoulder  -0.442673 -4.79524 27.3527
RightArm  10.6053 -6.29394 44.1305
RightForeArm  2.23554 4.92403 6.32605
RightHand  -0.252218 -0.0336966 -5.49055
LeftUpLeg  -16.4606 1.14873 -12.5407
LeftLeg  23.7018 1.50098 1.06803
LeftFoot  -0.0526386 -0.631269 6.3737
LeftToes  -7.16024e-010 4.79583e-011 -5.98286e-011
